# xmcd
#
# Track frame offsets: 
#        150
#        25731
#        56800
#        83669
#        104630
#        121916
#        142815
#        170404
#        214931
#        229600
#
# Disc length: 3260 seconds
#
# Revision: 0
# Processed by: cddbd v1.5.2PL0 Copyright (c) Steve Scherf et al.
# Submitted via: ExactAudioCopyFreeDBPlugin 1.0
#
DISCID=810cba0a
DTITLE=Dennis Winslet - Soul Journey
DYEAR=2004
DGENRE=Blues
TTITLE0=Fanfare  and emergence
TTITLE1=Soul Journey
TTITLE2=Destain (Pain of Love)
TTITLE3=Da Grind
TTITLE4=In Angel's Paradise
TTITLE5=Dancing Jing
TTITLE6=Rise of the Son
TTITLE7=Tasmanian Devils
TTITLE8=Ancient Folk Song
TTITLE9=Ancient Folk Music
EXTD=
EXTT0=
EXTT1=
EXTT2=
EXTT3=
EXTT4=
EXTT5=
EXTT6=
EXTT7=
EXTT8=
EXTT9=
PLAYORDER=
